<?xml version="1.0" encoding="UTF-8"?>
<svg id="Layer_1" data-name="Layer 1" xmlns="http://www.w3.org/2000/svg" viewBox="0 0 1505.17 755">
  <defs>
    <style>
      .cls-1 {
        letter-spacing: -.01em;
      }

      .cls-2, .cls-3 {
        stroke-width: 0px;
      }

      .cls-2, .cls-4, .cls-5 {
        fill: #c39752;
      }

      .cls-6 {
        letter-spacing: 0em;
      }

      .cls-3 {
        fill: #6d604f;
      }

      .cls-4 {
        font-family: UnisonPro-Bold, 'Unison Pro';
        font-size: 153.03px;
        font-weight: 700;
      }

      .cls-5 {
        font-family: SourceSansItalic-Regular, 'Source Sans Variable';
        font-size: 122.67px;
        font-variation-settings: 'wght' 400;
      }
    </style>
  </defs>
  <g>
    <path class="cls-3" d="M489.77,262.82v-26.22h124.85v17.24l17.24-17.24h1.81v-1.81l40.63-40.63-40.63-40.63v-.17h-.17l-18.06-18.06-.82.82v17.24h-124.85v-.11h-83.24v109.57c0,70.16,57.08,127.25,127.25,127.25h203.35v-83.24h-203.35c-24.26,0-44-19.74-44-44Z"/>
    <path class="cls-3" d="M971.4,0h-203.35s-30.92,0-30.92,0h-203.35c-54.7,0-101.44,34.7-119.4,83.24h467.83s89.19,0,89.19,0c24.26,0,44,19.74,44,44v135.57c0,24.26-19.74,44-44,44h-122.49v-72.83h64.11v19.85l59.68-59.68-40.54-40.54v-.49h-.49l-17.83-17.83-.82.82v17.01h-101.95c-23.74,0-43.03,19.29-43.03,43v193.94h203.35c70.16,0,127.25-57.08,127.25-127.25V127.25c0-70.16-57.08-127.25-127.25-127.25Z"/>
  </g>
  <g>
    <text class="cls-4" transform="translate(126.56 584.17)"><tspan x="0" y="0">LKIN</tspan></text>
    <g>
      <path class="cls-2" d="M46.88,475.6c-20.16,0-37.38,9.53-43.99,22.86h118.92v-22.86H46.88Z"/>
      <path class="cls-2" d="M30.67,547.77v-7.2h50.38v4.73l6.35-4.73h.67v-.5l14.97-11.16-14.97-11.16v-.05h-.06l-6.66-4.96-.3.23v4.74H30.67v-.03H0v30.09c0,19.27,21.03,34.94,46.88,34.94h74.93v-22.86H46.88c-8.94,0-16.21-5.42-16.21-12.08Z"/>
    </g>
    <path class="cls-2" d="M767.89,474.15h89.03v23.48h-89.03c-10.62,0-19.26,5.57-19.26,12.41v38.24c0,6.84,8.64,12.41,19.26,12.41h53.63s0-20.54,0-20.54h-28.07s0,5.6,0,5.6l-26.13-16.83,17.75-11.44v-.14h.21s7.81-5.03,7.81-5.03l.36.23v4.8s44.64,0,44.64,0c10.39,0,18.84,5.44,18.84,12.13v31.22s0,23.48,0,23.48h-35.41s-53.63,0-53.63,0c-30.72,0-55.71-16.1-55.71-35.89v-38.24c0-19.79,24.99-35.89,55.71-35.89Z"/>
    <text class="cls-4" transform="translate(864.75 582.72)"><tspan x="0" y="0">ROUP</tspan></text>
  </g>
  <text class="cls-5" transform="translate(288.29 721.39)"><tspan x="0" y="0">Go B</tspan><tspan class="cls-1" x="230.37" y="0">e</tspan><tspan class="cls-6" x="287.66" y="0">y</tspan><tspan x="342.12" y="0">ond with Us</tspan></text>
</svg>